<?xml version="1.0" encoding="iso-8859-1"?>
<!-- Generator: Adobe Illustrator 16.0.0, SVG Export Plug-In . SVG Version: 6.00 Build 0)  -->
<!DOCTYPE svg PUBLIC "-//W3C//DTD SVG 1.1//EN" "http://www.w3.org/Graphics/SVG/1.1/DTD/svg11.dtd">
<svg version="1.1" id="Capa_1" xmlns="http://www.w3.org/2000/svg" xmlns:xlink="http://www.w3.org/1999/xlink" x="0px" y="0px"
	 width="612px" height="612px" viewBox="0 0 612 612" style="enable-background:new 0 0 612 612;" xml:space="preserve">
<g>
	<g>
		<g>
			<g>
				<g>
					<path d="M216.63,247.92c0-4.458,3.658-8.087,8.115-8.087h5.401c4.458,0,8.087,3.658,8.087,8.087v165.88
						c0,4.458-3.658,8.087-8.087,8.087h-5.429c-4.458,0-8.116-3.657-8.116-8.087V247.92H216.63z"/>
				</g>
				<g>
					<path d="M379.91,408.657c0-4.458-0.114-8.087-0.257-8.087s-2.486,2.886-5.201,6.43c0,0-4.801,6.229-12.944,10.944
						s-17.603,7.087-28.404,7.087c-8.4,0-16.288-1.601-23.66-4.772c-7.373-3.172-13.745-7.601-19.174-13.23
						c-5.372-5.658-9.63-12.345-12.716-20.06c-3.086-7.716-4.629-16.117-4.629-25.204s1.543-17.488,4.629-25.203
						c3.086-7.716,7.373-14.402,12.859-20.06c5.458-5.658,12.116-10.088,19.917-13.231c7.801-3.172,16.402-4.772,25.832-4.772
						c8.772,0,16.774,1.8,24.061,5.401c7.287,3.6,13.373,9.515,13.373,9.515c3.201,3.115,5.916,5.658,6.059,5.658
						s0.257-3.657,0.257-8.087v-75.411c0-4.458,3.658-8.086,8.087-8.086h3.857c4.458,0,8.087,3.657,8.087,8.086v178.225
						c0,4.458-3.657,8.087-8.087,8.087h-3.857c-4.458,0-8.087-3.657-8.087-8.087V408.657L379.91,408.657z M379.91,361.736
						c0-6.344-0.972-12.23-2.972-17.631s-4.857-10.116-8.63-14.145c-3.771-4.029-8.258-7.201-13.516-9.516
						c-5.229-2.315-11.088-3.486-17.603-3.486c-6.516,0-12.402,1.171-17.603,3.486c-5.258,2.314-9.744,5.486-13.517,9.516
						c-3.772,4.028-6.629,8.744-8.629,14.145c-1.943,5.4-2.972,11.287-2.972,17.631s1,12.202,2.972,17.631
						c1.972,5.401,4.857,10.116,8.629,14.146c3.772,4.028,8.259,7.2,13.517,9.516c5.229,2.314,11.115,3.485,17.603,3.485
						c6.544,0,12.401-1.171,17.603-3.485c5.258-2.315,9.744-5.487,13.516-9.516c3.772-4.029,6.63-8.744,8.63-14.146
						C378.938,373.938,379.91,368.08,379.91,361.736z"/>
				</g>
			</g>
		</g>
		<path d="M305.986,612C137.248,612,0,474.724,0,306.014C0,137.276,137.248,0,305.986,0S612,137.276,612,306.014
			C612,474.724,474.695,612,305.986,612z M305.986,28.575c-152.964,0-277.411,124.446-277.411,277.438
			c0,152.965,124.446,277.411,277.411,277.411c152.993,0,277.439-124.446,277.439-277.411
			C583.425,153.021,458.95,28.575,305.986,28.575z"/>
	</g>
</g>
<g>
</g>
<g>
</g>
<g>
</g>
<g>
</g>
<g>
</g>
<g>
</g>
<g>
</g>
<g>
</g>
<g>
</g>
<g>
</g>
<g>
</g>
<g>
</g>
<g>
</g>
<g>
</g>
<g>
</g>
</svg>
