<?xml version="1.0" encoding="iso-8859-1"?>
<!-- Generator: Adobe Illustrator 16.0.0, SVG Export Plug-In . SVG Version: 6.00 Build 0)  -->
<!DOCTYPE svg PUBLIC "-//W3C//DTD SVG 1.1//EN" "http://www.w3.org/Graphics/SVG/1.1/DTD/svg11.dtd">
<svg version="1.1" id="Capa_1" xmlns="http://www.w3.org/2000/svg" xmlns:xlink="http://www.w3.org/1999/xlink" x="0px" y="0px"
	 width="30.666px" height="30.666px" viewBox="0 0 30.666 30.666" style="enable-background:new 0 0 30.666 30.666;"
	 xml:space="preserve">
<g>
	<g>
		<path d="M21.217,25.467V7.249h2.66V2.401h-2.66V0h-10.8v2.401H6.79v4.848h3.627v18.218H5.676v5.199H24.99v-5.199H21.217z
			 M7.435,3.046h15.798v3.558H7.435V3.046z"/>
		<polygon points="9.607,5.647 10.16,5.647 10.16,4.965 10.876,4.965 10.876,4.537 10.16,4.537 10.16,4.313 10.994,4.313 
			10.994,3.854 9.607,3.854 		"/>
		<rect x="11.19" y="3.854" width="0.553" height="1.793"/>
		<polygon points="13.123,4.813 13.117,4.813 12.595,3.854 12.03,3.854 12.03,5.647 12.552,5.647 12.552,4.668 12.557,4.668 
			13.108,5.647 13.645,5.647 13.645,3.854 13.123,3.854 		"/>
		<path d="M14.432,3.854l-0.661,1.793h0.555l0.08-0.255h0.57l0.075,0.255h0.573l-0.653-1.793H14.432z M14.527,5.007L14.7,4.455
			h0.005l0.161,0.552H14.527z"/>
		<polygon points="16.844,4.813 16.839,4.813 16.316,3.854 15.751,3.854 15.751,5.647 16.273,5.647 16.273,4.668 16.277,4.668 
			16.828,5.647 17.365,5.647 17.365,3.854 16.844,3.854 		"/>
		<path d="M18.755,5.062c-0.015,0.038-0.032,0.07-0.056,0.097c-0.023,0.025-0.051,0.047-0.084,0.062
			c-0.032,0.015-0.072,0.022-0.119,0.022c-0.065,0-0.12-0.015-0.164-0.043c-0.043-0.028-0.079-0.065-0.104-0.112
			c-0.026-0.047-0.045-0.1-0.057-0.159c-0.013-0.059-0.019-0.118-0.019-0.179c0-0.06,0.006-0.12,0.019-0.178
			c0.012-0.058,0.03-0.111,0.057-0.157c0.025-0.048,0.062-0.086,0.104-0.114c0.044-0.029,0.099-0.042,0.164-0.042
			c0.057,0,0.104,0.011,0.139,0.032c0.036,0.023,0.064,0.048,0.087,0.077c0.022,0.028,0.037,0.057,0.045,0.086
			c0.009,0.029,0.015,0.052,0.017,0.068h0.539c-0.023-0.225-0.104-0.4-0.237-0.523c-0.136-0.123-0.326-0.185-0.574-0.187
			c-0.14,0-0.265,0.023-0.376,0.068s-0.207,0.108-0.287,0.19c-0.08,0.083-0.141,0.181-0.184,0.297
			c-0.043,0.115-0.063,0.243-0.063,0.383c0,0.133,0.021,0.256,0.062,0.371c0.039,0.114,0.1,0.214,0.177,0.298
			c0.079,0.084,0.173,0.15,0.286,0.199c0.111,0.048,0.24,0.072,0.387,0.072c0.13,0,0.247-0.021,0.35-0.064
			c0.102-0.044,0.188-0.102,0.256-0.173c0.07-0.071,0.123-0.15,0.158-0.24c0.037-0.089,0.055-0.179,0.055-0.269h-0.543
			C18.779,4.986,18.769,5.026,18.755,5.062z"/>
		<polygon points="20.115,4.965 20.962,4.965 20.962,4.537 20.115,4.537 20.115,4.313 21.047,4.313 21.047,3.854 19.562,3.854 
			19.562,5.647 21.074,5.647 21.074,5.188 20.115,5.188 		"/>
	</g>
</g>
<g>
</g>
<g>
</g>
<g>
</g>
<g>
</g>
<g>
</g>
<g>
</g>
<g>
</g>
<g>
</g>
<g>
</g>
<g>
</g>
<g>
</g>
<g>
</g>
<g>
</g>
<g>
</g>
<g>
</g>
</svg>
