<svg width="593" height="383" viewBox="0 0 593 383" fill="none" xmlns="http://www.w3.org/2000/svg">
<g clip-path="url(#clip0)">
<path d="M549.507 332.086L491.976 232.284C491.816 232.004 491.584 231.771 491.305 231.608C491.026 231.446 490.709 231.361 490.386 231.361C490.064 231.361 489.747 231.446 489.467 231.608C489.188 231.771 488.957 232.004 488.797 232.284L431.25 332.086C431.082 332.365 430.991 332.685 430.988 333.012C430.985 333.338 431.068 333.66 431.231 333.943C431.393 334.226 431.628 334.461 431.911 334.622C432.195 334.784 432.516 334.867 432.842 334.863H450.008C450.495 334.865 450.961 335.059 451.305 335.403C451.65 335.748 451.843 336.215 451.845 336.702V358.023C451.844 358.264 451.891 358.503 451.982 358.725C452.074 358.948 452.208 359.151 452.377 359.321C452.547 359.492 452.748 359.628 452.97 359.72C453.192 359.813 453.43 359.861 453.67 359.862H476.069C476.556 359.862 477.023 359.668 477.368 359.324C477.712 358.979 477.905 358.511 477.905 358.023V347.707C477.905 347.221 478.098 346.755 478.442 346.411C478.785 346.067 479.251 345.874 479.736 345.874H501.031C501.517 345.874 501.983 346.067 502.327 346.41C502.672 346.754 502.866 347.22 502.867 347.707V358.001C502.867 358.489 503.061 358.957 503.405 359.301C503.75 359.646 504.217 359.84 504.704 359.84H527.097C527.584 359.837 528.05 359.643 528.394 359.298C528.739 358.954 528.935 358.488 528.939 358.001V336.68C528.939 336.192 529.132 335.724 529.477 335.38C529.821 335.035 530.288 334.841 530.775 334.841H547.942C548.262 334.836 548.575 334.748 548.85 334.585C549.125 334.422 549.353 334.19 549.511 333.911C549.669 333.633 549.752 333.318 549.751 332.998C549.75 332.678 549.666 332.363 549.507 332.086ZM469.294 343.13C468.95 343.48 468.482 343.68 467.991 343.685H459.912C459.425 343.685 458.958 343.491 458.614 343.146C458.269 342.802 458.076 342.334 458.076 341.846C458.076 341.359 458.269 340.891 458.614 340.546C458.958 340.201 459.425 340.007 459.912 340.007H467.991C468.232 340.007 468.471 340.054 468.694 340.146C468.917 340.238 469.12 340.374 469.291 340.544C469.461 340.715 469.597 340.918 469.689 341.142C469.781 341.365 469.828 341.605 469.827 341.846C469.822 342.327 469.631 342.787 469.294 343.13ZM522.153 343.13C521.985 343.304 521.783 343.443 521.56 343.538C521.337 343.633 521.097 343.683 520.855 343.685H512.782C512.296 343.684 511.829 343.489 511.485 343.145C511.141 342.8 510.947 342.333 510.946 341.846C510.949 341.359 511.143 340.893 511.487 340.549C511.831 340.205 512.296 340.01 512.782 340.007H520.855C521.219 340.005 521.576 340.111 521.88 340.313C522.183 340.514 522.42 340.802 522.56 341.139C522.699 341.476 522.735 341.847 522.662 342.205C522.59 342.562 522.413 342.89 522.153 343.146V343.13Z" fill="#F2F2F2"/>
<path d="M193.825 332.963L136.284 233.168C136.122 232.889 135.889 232.657 135.61 232.496C135.33 232.335 135.014 232.25 134.691 232.25C134.369 232.25 134.052 232.335 133.773 232.496C133.493 232.657 133.261 232.889 133.099 233.168L83.3914 319.364C89.6099 327.2 96.5846 334.403 104.214 340.868H112.298C112.661 340.869 113.016 340.977 113.318 341.179C113.62 341.381 113.855 341.668 113.994 342.004C114.133 342.34 114.17 342.709 114.099 343.066C114.028 343.422 113.853 343.75 113.596 344.007C113.429 344.183 113.227 344.322 113.004 344.418C112.781 344.513 112.541 344.562 112.298 344.563H108.88C113.066 347.715 117.522 350.49 122.196 352.857V348.607C122.198 348.119 122.393 347.651 122.738 347.306C123.083 346.962 123.551 346.768 124.038 346.768H145.327C145.814 346.768 146.282 346.962 146.626 347.307C146.97 347.652 147.164 348.119 147.164 348.607V358.895C147.16 359.163 147.219 359.427 147.336 359.668C147.481 359.987 147.716 360.258 148.011 360.447C148.306 360.636 148.65 360.736 149 360.734H171.399C171.683 360.734 171.963 360.667 172.216 360.539C172.47 360.41 172.69 360.224 172.858 359.995C173.103 359.678 173.232 359.286 173.224 358.884V337.563C173.224 337.075 173.418 336.608 173.762 336.263C174.107 335.918 174.574 335.724 175.061 335.724H192.227C192.551 335.728 192.871 335.645 193.152 335.484C193.434 335.324 193.668 335.091 193.83 334.81C193.993 334.53 194.078 334.211 194.077 333.886C194.076 333.562 193.989 333.243 193.825 332.963ZM155.786 341.407C155.956 341.233 156.159 341.095 156.383 340.999C156.606 340.904 156.847 340.854 157.09 340.852H165.168C165.655 340.852 166.122 341.046 166.467 341.39C166.811 341.735 167.005 342.203 167.005 342.691C167.002 343.177 166.807 343.643 166.464 343.988C166.12 344.332 165.654 344.527 165.168 344.529H157.09C156.848 344.53 156.609 344.483 156.386 344.391C156.163 344.299 155.96 344.163 155.79 343.993C155.619 343.822 155.484 343.619 155.392 343.395C155.3 343.172 155.253 342.932 155.253 342.691C155.258 342.21 155.449 341.75 155.786 341.407ZM119.644 304.476C119.403 304.476 119.164 304.429 118.94 304.337C118.717 304.245 118.515 304.11 118.344 303.939C118.173 303.768 118.038 303.565 117.946 303.341C117.854 303.118 117.807 302.879 117.808 302.637V288.671C117.807 288.429 117.854 288.19 117.946 287.966C118.038 287.743 118.173 287.54 118.344 287.369C118.515 287.198 118.717 287.063 118.94 286.97C119.164 286.878 119.403 286.831 119.644 286.832H149.744C150.231 286.832 150.698 287.026 151.042 287.371C151.387 287.715 151.58 288.183 151.58 288.671V302.637C151.58 303.125 151.387 303.592 151.042 303.937C150.698 304.282 150.231 304.476 149.744 304.476H119.644Z" fill="#F2F2F2"/>
<path d="M421.301 153.682H350.083V138.261C350.084 137.776 349.989 137.296 349.804 136.848C349.619 136.4 349.348 135.993 349.006 135.651C348.663 135.308 348.257 135.036 347.81 134.851C347.362 134.666 346.883 134.571 346.399 134.572H325.487V118.173C325.487 117.557 325.243 116.966 324.808 116.531C324.373 116.095 323.783 115.851 323.168 115.851H296.231C295.616 115.851 295.026 116.095 294.591 116.531C294.156 116.966 293.912 117.557 293.912 118.173V134.6H269.316C268.339 134.6 267.402 134.988 266.711 135.68C266.02 136.372 265.632 137.31 265.632 138.288V153.671H197.742C197.545 153.673 197.356 153.752 197.216 153.893C197.077 154.033 196.999 154.223 196.999 154.421V359.157C196.999 359.355 197.077 359.544 197.216 359.685C197.356 359.825 197.545 359.905 197.742 359.907H242.873C243.071 359.907 243.262 359.828 243.402 359.687C243.543 359.546 243.622 359.355 243.622 359.157V331.613C243.625 331.414 243.705 331.225 243.846 331.084C243.987 330.944 244.177 330.865 244.376 330.863H263.435C263.633 330.865 263.823 330.944 263.963 331.085C264.103 331.225 264.182 331.415 264.184 331.613V359.157C264.185 359.354 264.264 359.543 264.403 359.683C264.542 359.824 264.73 359.904 264.927 359.907H354.111C354.309 359.905 354.499 359.826 354.639 359.685C354.779 359.545 354.859 359.355 354.86 359.157V331.613C354.862 331.416 354.94 331.227 355.079 331.087C355.218 330.946 355.406 330.866 355.604 330.863H374.668C374.867 330.863 375.058 330.942 375.199 331.083C375.341 331.223 375.421 331.414 375.422 331.613V359.157C375.424 359.354 375.502 359.543 375.641 359.683C375.78 359.824 375.968 359.904 376.166 359.907H421.301C421.499 359.905 421.688 359.825 421.827 359.685C421.967 359.544 422.045 359.355 422.045 359.157V154.432C422.045 154.234 421.967 154.044 421.827 153.904C421.688 153.763 421.499 153.684 421.301 153.682ZM235.538 321.297C235.538 321.494 235.46 321.682 235.322 321.822C235.184 321.961 234.996 322.04 234.8 322.042H206.925C206.827 322.042 206.729 322.024 206.638 321.987C206.547 321.95 206.464 321.895 206.394 321.826C206.324 321.757 206.268 321.674 206.23 321.584C206.191 321.493 206.171 321.396 206.17 321.297V311.764C206.172 311.565 206.252 311.374 206.393 311.234C206.535 311.093 206.726 311.014 206.925 311.014H234.8C234.997 311.017 235.184 311.097 235.322 311.238C235.46 311.378 235.538 311.567 235.538 311.764V321.297ZM235.538 296.665C235.538 296.763 235.52 296.86 235.483 296.95C235.447 297.041 235.392 297.123 235.324 297.193C235.255 297.263 235.174 297.318 235.084 297.356C234.994 297.394 234.897 297.414 234.8 297.415H206.925C206.826 297.416 206.728 297.397 206.637 297.359C206.545 297.322 206.462 297.267 206.392 297.197C206.322 297.127 206.266 297.045 206.228 296.953C206.19 296.862 206.17 296.764 206.17 296.665V287.138C206.17 287.039 206.19 286.941 206.228 286.849C206.266 286.758 206.322 286.675 206.392 286.605C206.462 286.536 206.545 286.48 206.637 286.443C206.728 286.406 206.826 286.387 206.925 286.388H234.8C234.897 286.388 234.994 286.408 235.084 286.446C235.174 286.484 235.255 286.54 235.324 286.609C235.392 286.679 235.447 286.762 235.483 286.852C235.52 286.943 235.538 287.04 235.538 287.138V296.665ZM235.538 272.038C235.538 272.235 235.46 272.424 235.322 272.565C235.184 272.705 234.997 272.785 234.8 272.788H206.925C206.726 272.788 206.535 272.709 206.393 272.569C206.252 272.428 206.172 272.238 206.17 272.038V262.505C206.172 262.306 206.252 262.115 206.393 261.975C206.535 261.834 206.726 261.755 206.925 261.755H234.8C234.997 261.758 235.184 261.839 235.322 261.979C235.46 262.119 235.538 262.308 235.538 262.505V272.038ZM235.538 247.406C235.538 247.504 235.52 247.601 235.483 247.691C235.447 247.782 235.392 247.864 235.324 247.934C235.255 248.004 235.174 248.059 235.084 248.097C234.994 248.135 234.897 248.155 234.8 248.156H206.925C206.826 248.157 206.728 248.138 206.637 248.1C206.545 248.063 206.462 248.008 206.392 247.938C206.322 247.868 206.266 247.786 206.228 247.694C206.19 247.603 206.17 247.505 206.17 247.406V237.879C206.17 237.78 206.19 237.682 206.228 237.59C206.266 237.499 206.322 237.416 206.392 237.346C206.462 237.277 206.545 237.221 206.637 237.184C206.728 237.147 206.826 237.128 206.925 237.129H234.8C234.897 237.129 234.994 237.149 235.084 237.187C235.174 237.225 235.255 237.281 235.324 237.351C235.392 237.42 235.447 237.503 235.483 237.593C235.52 237.684 235.538 237.781 235.538 237.879V247.406ZM235.538 222.779C235.538 222.976 235.46 223.165 235.322 223.306C235.184 223.446 234.997 223.526 234.8 223.529H206.925C206.726 223.529 206.535 223.45 206.393 223.31C206.252 223.169 206.172 222.979 206.17 222.779V213.246C206.171 213.148 206.191 213.05 206.23 212.96C206.268 212.869 206.324 212.787 206.394 212.718C206.464 212.648 206.547 212.594 206.638 212.557C206.729 212.52 206.827 212.501 206.925 212.502H234.8C234.996 212.503 235.184 212.582 235.322 212.722C235.46 212.861 235.538 213.05 235.538 213.246V222.779ZM235.538 198.152C235.538 198.349 235.46 198.537 235.322 198.677C235.184 198.816 234.996 198.895 234.8 198.897H206.925C206.827 198.898 206.729 198.879 206.638 198.842C206.547 198.805 206.464 198.75 206.394 198.681C206.324 198.612 206.268 198.53 206.23 198.439C206.191 198.348 206.171 198.251 206.17 198.152V188.62C206.172 188.42 206.252 188.229 206.393 188.089C206.535 187.948 206.726 187.87 206.925 187.87H234.8C234.997 187.873 235.184 187.953 235.322 188.093C235.46 188.233 235.538 188.423 235.538 188.62V198.152ZM235.538 173.52C235.538 173.618 235.52 173.715 235.483 173.806C235.447 173.896 235.392 173.979 235.324 174.048C235.255 174.118 235.174 174.173 235.084 174.211C234.994 174.249 234.897 174.269 234.8 174.27H206.925C206.826 174.271 206.728 174.252 206.637 174.215C206.545 174.177 206.462 174.122 206.392 174.053C206.322 173.983 206.266 173.9 206.228 173.809C206.19 173.717 206.17 173.619 206.17 173.52V163.993C206.17 163.894 206.19 163.796 206.228 163.705C206.266 163.613 206.322 163.53 206.392 163.461C206.462 163.391 206.545 163.336 206.637 163.298C206.728 163.261 206.826 163.242 206.925 163.243H234.8C234.897 163.244 234.994 163.264 235.084 163.302C235.174 163.34 235.255 163.395 235.324 163.465C235.392 163.535 235.447 163.617 235.483 163.708C235.52 163.798 235.538 163.895 235.538 163.993V173.52ZM301.629 321.292C301.629 321.39 301.609 321.487 301.57 321.578C301.532 321.669 301.476 321.751 301.406 321.82C301.336 321.889 301.253 321.944 301.162 321.981C301.071 322.018 300.973 322.037 300.875 322.036H273C272.803 322.036 272.614 321.958 272.474 321.818C272.335 321.678 272.257 321.489 272.257 321.292V311.764C272.257 311.566 272.335 311.376 272.474 311.236C272.613 311.095 272.802 311.016 273 311.014H300.875C301.074 311.014 301.265 311.093 301.406 311.234C301.548 311.374 301.628 311.565 301.629 311.764V321.292ZM301.629 296.659C301.629 296.758 301.61 296.856 301.572 296.948C301.534 297.039 301.478 297.122 301.408 297.192C301.338 297.261 301.255 297.316 301.163 297.354C301.072 297.391 300.974 297.41 300.875 297.409H273C272.902 297.409 272.805 297.39 272.714 297.352C272.624 297.314 272.541 297.259 272.472 297.189C272.403 297.12 272.349 297.037 272.312 296.946C272.275 296.855 272.256 296.758 272.257 296.659V287.138C272.256 287.039 272.275 286.942 272.312 286.851C272.349 286.76 272.403 286.677 272.472 286.608C272.541 286.538 272.624 286.482 272.714 286.445C272.805 286.407 272.902 286.388 273 286.388H300.875C300.974 286.387 301.072 286.406 301.163 286.443C301.255 286.48 301.338 286.536 301.408 286.605C301.478 286.675 301.534 286.758 301.572 286.849C301.61 286.941 301.629 287.039 301.629 287.138V296.659ZM301.629 272.033C301.628 272.232 301.548 272.423 301.406 272.563C301.265 272.704 301.074 272.783 300.875 272.783H273C272.806 272.781 272.62 272.705 272.482 272.569C272.343 272.433 272.262 272.249 272.257 272.055V262.505C272.257 262.307 272.335 262.117 272.474 261.977C272.613 261.836 272.802 261.757 273 261.755H300.875C301.074 261.755 301.265 261.834 301.406 261.975C301.548 262.115 301.628 262.306 301.629 262.505V272.033ZM301.629 247.4C301.629 247.499 301.61 247.597 301.572 247.689C301.534 247.78 301.478 247.863 301.408 247.933C301.338 248.002 301.255 248.057 301.163 248.095C301.072 248.132 300.974 248.151 300.875 248.15H273C272.902 248.15 272.805 248.131 272.714 248.093C272.624 248.055 272.541 248 272.472 247.93C272.403 247.861 272.349 247.778 272.312 247.687C272.275 247.596 272.256 247.499 272.257 247.4V237.879C272.256 237.78 272.275 237.683 272.312 237.592C272.349 237.501 272.403 237.418 272.472 237.349C272.541 237.279 272.624 237.224 272.714 237.186C272.805 237.148 272.902 237.129 273 237.129H300.875C300.974 237.128 301.072 237.147 301.163 237.184C301.255 237.221 301.338 237.277 301.408 237.346C301.478 237.416 301.534 237.499 301.572 237.59C301.61 237.682 301.629 237.78 301.629 237.879V247.4ZM301.629 222.774C301.628 222.973 301.548 223.164 301.406 223.304C301.265 223.445 301.074 223.524 300.875 223.524H273C272.802 223.522 272.613 223.442 272.474 223.302C272.335 223.162 272.257 222.972 272.257 222.774V213.246C272.257 213.049 272.335 212.86 272.474 212.72C272.614 212.58 272.803 212.502 273 212.502H300.875C300.973 212.501 301.071 212.52 301.162 212.557C301.253 212.594 301.336 212.648 301.406 212.718C301.476 212.787 301.532 212.869 301.57 212.96C301.609 213.05 301.629 213.148 301.629 213.246V222.774ZM301.629 198.147C301.629 198.245 301.609 198.343 301.57 198.434C301.532 198.524 301.476 198.607 301.406 198.676C301.336 198.745 301.253 198.799 301.162 198.836C301.071 198.873 300.973 198.892 300.875 198.891H273C272.807 198.891 272.621 198.816 272.482 198.681C272.343 198.546 272.262 198.363 272.257 198.169V188.62C272.257 188.422 272.335 188.232 272.474 188.091C272.613 187.951 272.802 187.871 273 187.87H300.875C301.074 187.87 301.265 187.948 301.406 188.089C301.548 188.229 301.628 188.42 301.629 188.62V198.147ZM301.629 173.515C301.629 173.614 301.61 173.712 301.572 173.803C301.534 173.894 301.478 173.977 301.408 174.047C301.338 174.117 301.255 174.172 301.163 174.209C301.072 174.247 300.974 174.265 300.875 174.265H273C272.902 174.265 272.805 174.245 272.714 174.207C272.624 174.17 272.541 174.114 272.472 174.045C272.403 173.975 272.349 173.892 272.312 173.801C272.275 173.71 272.256 173.613 272.257 173.515V163.993C272.256 163.895 272.275 163.797 272.312 163.706C272.349 163.615 272.403 163.533 272.472 163.463C272.541 163.393 272.624 163.338 272.714 163.3C272.805 163.262 272.902 163.243 273 163.243H300.875C300.974 163.242 301.072 163.261 301.163 163.298C301.255 163.336 301.338 163.391 301.408 163.461C301.478 163.53 301.534 163.613 301.572 163.705C301.61 163.796 301.629 163.894 301.629 163.993V173.515ZM346.782 321.286C346.782 321.384 346.762 321.482 346.725 321.572C346.687 321.663 346.632 321.745 346.562 321.814C346.492 321.884 346.41 321.938 346.319 321.975C346.228 322.012 346.131 322.031 346.033 322.03H318.141C317.943 322.03 317.753 321.952 317.612 321.813C317.47 321.674 317.39 321.484 317.387 321.286V311.764C317.39 311.565 317.47 311.375 317.611 311.235C317.752 311.095 317.943 311.016 318.141 311.014H346.011C346.209 311.014 346.4 311.093 346.54 311.234C346.681 311.375 346.76 311.565 346.76 311.764L346.782 321.286ZM346.782 296.654C346.782 296.752 346.764 296.85 346.726 296.942C346.689 297.033 346.634 297.116 346.564 297.186C346.494 297.256 346.411 297.311 346.32 297.348C346.229 297.386 346.131 297.404 346.033 297.404H318.141C317.942 297.404 317.751 297.325 317.61 297.184C317.468 297.044 317.388 296.853 317.387 296.654V287.138C317.388 286.938 317.468 286.747 317.61 286.607C317.751 286.466 317.942 286.388 318.141 286.388H346.011C346.109 286.387 346.207 286.406 346.298 286.443C346.389 286.481 346.472 286.536 346.542 286.606C346.612 286.675 346.667 286.758 346.704 286.85C346.741 286.941 346.76 287.039 346.76 287.138L346.782 296.654ZM346.782 272.027C346.782 272.126 346.762 272.223 346.725 272.314C346.687 272.405 346.632 272.488 346.562 272.557C346.493 272.627 346.41 272.682 346.319 272.72C346.228 272.758 346.131 272.777 346.033 272.777H318.141C317.943 272.776 317.752 272.696 317.611 272.556C317.47 272.416 317.39 272.226 317.387 272.027V262.505C317.39 262.306 317.47 262.116 317.611 261.976C317.752 261.836 317.943 261.757 318.141 261.755H346.011C346.109 261.755 346.206 261.775 346.297 261.812C346.388 261.85 346.471 261.905 346.54 261.975C346.61 262.045 346.665 262.127 346.703 262.218C346.74 262.309 346.76 262.407 346.76 262.505L346.782 272.027ZM346.782 247.395C346.782 247.493 346.764 247.591 346.726 247.683C346.689 247.774 346.634 247.857 346.564 247.927C346.494 247.997 346.411 248.052 346.32 248.089C346.229 248.127 346.131 248.146 346.033 248.145H318.141C317.942 248.145 317.751 248.066 317.61 247.925C317.468 247.785 317.388 247.594 317.387 247.395V237.879C317.388 237.679 317.468 237.488 317.61 237.348C317.751 237.207 317.942 237.129 318.141 237.129H346.011C346.109 237.128 346.207 237.147 346.298 237.184C346.389 237.222 346.472 237.277 346.542 237.347C346.612 237.416 346.667 237.499 346.704 237.591C346.741 237.682 346.76 237.78 346.76 237.879L346.782 247.395ZM346.782 222.768C346.782 222.867 346.762 222.964 346.725 223.055C346.687 223.146 346.632 223.229 346.562 223.298C346.493 223.368 346.41 223.423 346.319 223.461C346.228 223.499 346.131 223.518 346.033 223.518H318.141C317.943 223.517 317.752 223.437 317.611 223.297C317.47 223.157 317.39 222.967 317.387 222.768V213.246C317.39 213.048 317.47 212.858 317.612 212.719C317.753 212.58 317.943 212.502 318.141 212.502H346.011C346.109 212.501 346.206 212.52 346.297 212.557C346.388 212.594 346.47 212.649 346.54 212.718C346.609 212.787 346.665 212.869 346.702 212.96C346.74 213.051 346.76 213.148 346.76 213.246L346.782 222.768ZM346.782 198.141C346.782 198.24 346.762 198.337 346.725 198.428C346.687 198.518 346.632 198.601 346.562 198.67C346.492 198.739 346.41 198.794 346.319 198.831C346.228 198.868 346.131 198.887 346.033 198.886H318.141C317.943 198.886 317.753 198.808 317.612 198.668C317.47 198.529 317.39 198.34 317.387 198.141V188.62C317.39 188.421 317.47 188.231 317.611 188.091C317.752 187.95 317.943 187.871 318.141 187.87H346.011C346.209 187.87 346.4 187.949 346.54 188.089C346.681 188.23 346.76 188.421 346.76 188.62L346.782 198.141ZM346.782 173.509C346.782 173.608 346.764 173.706 346.726 173.797C346.689 173.888 346.634 173.971 346.564 174.041C346.494 174.111 346.411 174.166 346.32 174.204C346.229 174.241 346.131 174.26 346.033 174.259H318.141C317.942 174.259 317.751 174.18 317.61 174.04C317.468 173.899 317.388 173.709 317.387 173.509V163.993C317.388 163.793 317.468 163.603 317.61 163.462C317.751 163.322 317.942 163.243 318.141 163.243H346.011C346.109 163.242 346.207 163.261 346.298 163.298C346.389 163.336 346.472 163.391 346.542 163.461C346.612 163.531 346.667 163.614 346.704 163.705C346.741 163.796 346.76 163.894 346.76 163.993L346.782 173.509ZM412.873 321.28C412.871 321.479 412.79 321.668 412.649 321.808C412.507 321.947 412.317 322.025 412.119 322.025H384.244C384.146 322.026 384.049 322.007 383.959 321.97C383.868 321.933 383.786 321.878 383.717 321.809C383.648 321.739 383.593 321.657 383.556 321.566C383.519 321.476 383.5 321.378 383.501 321.28V311.764C383.5 311.666 383.519 311.569 383.556 311.478C383.593 311.387 383.647 311.304 383.716 311.234C383.785 311.165 383.868 311.109 383.958 311.071C384.049 311.034 384.146 311.014 384.244 311.014H412.119C412.318 311.016 412.508 311.095 412.649 311.235C412.79 311.375 412.871 311.565 412.873 311.764V321.28ZM412.873 296.648C412.872 296.848 412.792 297.038 412.65 297.179C412.509 297.319 412.318 297.398 412.119 297.398H384.244C384.146 297.398 384.049 297.379 383.958 297.341C383.868 297.303 383.785 297.248 383.716 297.178C383.647 297.108 383.593 297.026 383.556 296.935C383.519 296.844 383.5 296.746 383.501 296.648V287.138C383.5 287.039 383.519 286.942 383.556 286.851C383.593 286.76 383.647 286.677 383.716 286.608C383.785 286.538 383.868 286.482 383.958 286.445C384.049 286.407 384.146 286.388 384.244 286.388H412.119C412.318 286.388 412.509 286.466 412.65 286.607C412.792 286.747 412.872 286.938 412.873 287.138V296.648ZM412.873 272.021C412.871 272.22 412.79 272.41 412.649 272.551C412.508 272.691 412.318 272.77 412.119 272.771H384.244C384.052 272.772 383.867 272.697 383.728 272.563C383.589 272.43 383.508 272.247 383.501 272.055V262.505C383.5 262.407 383.519 262.31 383.556 262.219C383.593 262.128 383.647 262.045 383.716 261.975C383.785 261.906 383.868 261.85 383.958 261.812C384.049 261.775 384.146 261.755 384.244 261.755H412.119C412.318 261.757 412.508 261.836 412.649 261.976C412.79 262.116 412.871 262.306 412.873 262.505V272.021ZM412.873 247.389C412.872 247.589 412.792 247.779 412.65 247.92C412.509 248.06 412.318 248.139 412.119 248.139H384.244C384.146 248.139 384.049 248.12 383.958 248.082C383.868 248.044 383.785 247.989 383.716 247.919C383.647 247.85 383.593 247.767 383.556 247.676C383.519 247.585 383.5 247.487 383.501 247.389V237.879C383.5 237.78 383.519 237.683 383.556 237.592C383.593 237.501 383.647 237.418 383.716 237.349C383.785 237.279 383.868 237.224 383.958 237.186C384.049 237.148 384.146 237.129 384.244 237.129H412.119C412.318 237.129 412.509 237.207 412.65 237.348C412.792 237.488 412.872 237.679 412.873 237.879V247.389ZM412.873 222.763C412.871 222.961 412.79 223.151 412.649 223.292C412.508 223.432 412.318 223.511 412.119 223.512H384.244C384.146 223.513 384.049 223.493 383.958 223.455C383.868 223.418 383.785 223.362 383.716 223.293C383.647 223.223 383.593 223.14 383.556 223.049C383.519 222.958 383.5 222.861 383.501 222.763V213.246C383.5 213.148 383.519 213.051 383.556 212.961C383.593 212.87 383.648 212.788 383.717 212.718C383.786 212.649 383.868 212.594 383.959 212.557C384.049 212.52 384.146 212.501 384.244 212.502H412.119C412.317 212.502 412.507 212.58 412.649 212.719C412.79 212.858 412.871 213.048 412.873 213.246V222.763ZM412.873 198.136C412.871 198.334 412.79 198.524 412.649 198.663C412.507 198.802 412.317 198.88 412.119 198.88H384.244C384.052 198.882 383.867 198.808 383.728 198.676C383.589 198.543 383.508 198.361 383.501 198.169V188.62C383.5 188.521 383.519 188.424 383.556 188.333C383.593 188.242 383.647 188.159 383.716 188.09C383.785 188.02 383.868 187.965 383.958 187.927C384.049 187.889 384.146 187.87 384.244 187.87H412.119C412.318 187.871 412.508 187.95 412.649 188.091C412.79 188.231 412.871 188.421 412.873 188.62V198.136ZM412.873 173.504C412.872 173.703 412.792 173.894 412.65 174.034C412.509 174.175 412.318 174.254 412.119 174.254H384.244C384.146 174.254 384.049 174.234 383.958 174.196C383.868 174.159 383.785 174.103 383.716 174.034C383.647 173.964 383.593 173.881 383.556 173.79C383.519 173.699 383.5 173.602 383.501 173.504V163.993C383.5 163.895 383.519 163.797 383.556 163.706C383.593 163.615 383.647 163.533 383.716 163.463C383.785 163.393 383.868 163.338 383.958 163.3C384.049 163.262 384.146 163.243 384.244 163.243H412.119C412.318 163.243 412.509 163.322 412.65 163.462C412.792 163.603 412.872 163.793 412.873 163.993V173.504Z" fill="#F2F2F2"/>
<path d="M104.087 155.793C105.261 154.299 106.33 152.724 107.288 151.082L84.723 147.371L109.136 147.555C111.48 142.457 112.76 136.934 112.896 131.324C113.032 125.713 112.023 120.134 109.929 114.928L77.1939 131.928L107.382 109.706C104.545 104.828 100.737 100.585 96.1929 97.2424C91.6493 93.8996 86.4677 91.5279 80.9701 90.2746C75.4725 89.0212 69.7762 88.9131 64.2351 89.9568C58.6939 91.0005 53.4263 93.1738 48.7593 96.3417C44.0924 99.5096 40.1258 103.604 37.1059 108.372C34.086 113.139 32.0774 118.477 31.2048 124.055C30.3322 129.632 30.6142 135.33 32.0333 140.793C33.4524 146.257 35.9783 151.37 39.4542 155.815C37.6254 158.142 36.0535 160.661 34.7658 163.326L64.0277 178.537L32.8073 168.043C30.6193 174.535 30.0823 181.47 31.2448 188.222C32.4073 194.974 35.2327 201.33 39.4653 206.713C36.0392 211.061 33.5307 216.06 32.0915 221.407C37.5859 237.313 44.0526 252.866 51.4552 267.977C55.4176 270.239 59.7313 271.819 64.2164 272.649C63.6759 274.186 63.4019 275.803 63.4063 277.432C63.3648 279.838 63.9622 282.211 65.1374 284.31C64.1063 286.103 63.5061 288.111 63.3841 290.176C68.4514 298.833 74.0281 307.181 80.0846 315.175C79.7944 314.005 79.3385 312.883 78.7308 311.842C79.9023 309.74 80.5173 307.372 80.5173 304.965C80.5173 302.557 79.9023 300.189 78.7308 298.087C79.9023 295.985 80.5173 293.617 80.5173 291.21C80.5173 288.802 79.9023 286.435 78.7308 284.332C79.9253 282.239 80.5419 279.865 80.5174 277.455C80.5259 275.802 80.2442 274.16 79.6851 272.605C86.5959 271.248 93.043 268.136 98.4086 263.569C103.774 259.002 107.879 253.132 110.329 246.521C112.779 239.91 113.493 232.78 112.402 225.813C111.311 218.847 108.451 212.278 104.098 206.735C109.802 199.478 112.903 190.511 112.903 181.275C112.903 172.04 109.802 163.073 104.098 155.815L104.087 155.793Z" fill="#F2F2F2"/>
<path d="M592.933 188.642L591.269 188.37H592.9C592.606 182.078 591.472 175.855 589.527 169.865L583.723 172.881L589.183 168.848C584.223 154.402 574.736 141.945 562.135 133.333C556.33 135.836 551.177 139.641 547.072 144.453C542.968 149.265 540.022 154.957 538.462 161.089C536.901 167.221 536.768 173.63 538.072 179.822C539.376 186.014 542.083 191.823 545.983 196.803C544.155 199.135 542.583 201.659 541.295 204.33L570.59 219.607L539.37 209.091C537.182 215.597 536.645 222.545 537.807 229.31C538.969 236.076 541.794 242.445 546.028 247.845C542.009 252.975 539.26 258.984 538.004 265.382C536.748 271.779 537.021 278.384 538.801 284.655C540.581 290.927 543.817 296.688 548.246 301.468C552.674 306.248 558.169 309.911 564.282 312.159C566.501 306.887 568.659 301.376 570.679 295.709C572.466 290.71 574.169 285.615 575.772 280.471C580.456 265.391 584.374 250.083 587.513 234.606C591.064 216.985 593.061 201.586 593.061 191.831C593.006 190.758 592.978 189.703 592.933 188.642Z" fill="#F2F2F2"/>
<path d="M295.171 383C458.19 383 590.342 376.782 590.342 369.112C590.342 361.441 458.19 355.223 295.171 355.223C132.153 355.223 0 361.441 0 369.112C0 376.782 132.153 383 295.171 383Z" fill="#3F3D56"/>
<path d="M451.856 224.957C446.341 215.391 423.56 218.207 401.028 231.245C397.106 233.508 393.329 236.015 389.72 238.751C387.744 213.939 376.426 190.807 358.057 174.036C339.688 157.266 315.641 148.111 290.785 148.424C265.928 148.738 242.119 158.496 224.177 175.725C206.236 192.953 195.504 216.364 194.153 241.217C189.631 237.487 184.805 234.143 179.727 231.218C157.24 218.207 134.453 215.391 128.943 224.957C123.434 234.523 137.266 252.845 159.797 265.883C174.395 274.321 189.07 278.471 199.107 277.766C204.849 294.862 215.18 310.046 228.968 321.653C209.205 324.43 194.674 333.685 194.674 344.696C194.674 357.884 215.542 368.584 241.28 368.584C267.019 368.584 287.886 357.884 287.886 344.696C287.886 344.663 287.886 344.629 287.886 344.591C289.27 344.65 290.658 344.681 292.053 344.685C293.447 344.689 294.836 344.657 296.22 344.591C296.22 344.629 296.22 344.663 296.22 344.696C296.22 357.884 317.087 368.584 342.826 368.584C368.564 368.584 389.432 357.884 389.432 344.696C389.432 333.685 374.901 324.425 355.137 321.653C368.906 310.066 379.228 294.913 384.976 277.849C394.791 277.593 407.947 273.477 421.041 265.905C443.578 252.845 457.404 234.518 451.856 224.957Z" fill="#6C63FF"/>
<path opacity="0.1" d="M128.943 229.957C134.458 220.39 157.24 223.207 179.771 236.245C184.768 239.116 189.521 242.394 193.981 246.045C194.197 241.345 194.197 246.345 194.186 241.212C189.663 237.494 184.837 234.16 179.76 231.245C157.24 218.207 134.453 215.391 128.943 224.957C127.728 227.062 127.456 229.596 128.006 232.401C128.196 231.544 128.512 230.721 128.943 229.957Z" fill="black"/>
<path opacity="0.1" d="M451.978 229.957C446.463 220.39 423.681 223.207 401.144 236.245C395.89 239.278 393.887 240.39 389.715 243.823C389.493 239.123 389.493 244.123 389.509 238.99C393.726 235.495 395.807 234.334 401.161 231.245C423.72 218.207 446.48 215.391 451.995 224.957C453.21 227.062 453.482 229.596 452.932 232.401C452.737 231.543 452.415 230.72 451.978 229.957Z" fill="black"/>
<path d="M265.782 240.84C271.395 240.84 275.946 234.873 275.946 227.512C275.946 220.152 271.395 214.185 265.782 214.185C260.168 214.185 255.617 220.152 255.617 227.512C255.617 234.873 260.168 240.84 265.782 240.84Z" fill="#444053"/>
<path d="M318.297 240.84C323.91 240.84 328.461 234.873 328.461 227.512C328.461 220.152 323.91 214.185 318.297 214.185C312.683 214.185 308.132 220.152 308.132 227.512C308.132 234.873 312.683 240.84 318.297 240.84Z" fill="#444053"/>
<path d="M355.204 269.433C355.204 288.565 323.284 320.797 291.076 320.797C258.868 320.797 228.153 287.837 228.153 268.722C228.153 249.606 258.219 267.055 290.4 267.055C322.58 267.055 355.204 250.295 355.204 269.433Z" fill="#3F3D56"/>
<path d="M238.306 272.699C238.306 272.699 296.203 285.604 344.834 273.066C344.834 273.066 350.788 273.066 346.721 279.954C345.664 281.738 344.125 283.186 342.282 284.132C332.905 288.926 298.201 303.103 242.706 285.026C240.981 284.486 239.418 283.526 238.155 282.232C236.892 280.937 235.97 279.349 235.471 277.61C234.839 275.271 235.122 273.027 238.306 272.699Z" fill="#F6F8FB"/>
<path opacity="0.1" d="M291.681 161.41C316.667 161.411 340.71 170.968 358.893 188.126C377.077 205.284 388.028 228.749 389.509 253.722C389.694 251.278 389.787 248.809 389.787 246.317C389.592 220.419 379.181 195.648 360.822 177.403C342.463 159.159 317.645 148.921 291.778 148.921C265.912 148.921 241.094 159.159 222.735 177.403C204.376 195.648 193.965 220.419 193.77 246.317C193.77 248.278 193.836 250.206 193.947 252.156C195.81 227.478 206.914 204.416 225.038 187.589C243.161 170.761 266.965 161.411 291.681 161.41Z" fill="black"/>
<path d="M302.739 34.4874C302.739 36.139 302.414 37.7745 301.783 39.3005C301.152 40.8264 300.226 42.2129 299.06 43.3808C297.893 44.5487 296.509 45.4751 294.985 46.1072C293.461 46.7393 291.827 47.0646 290.178 47.0646C288.528 47.0646 286.895 46.7393 285.371 46.1072C283.847 45.4751 282.462 44.5487 281.295 43.3808C280.129 42.2129 279.204 40.8264 278.572 39.3005C277.941 37.7745 277.616 36.139 277.616 34.4874C277.616 34.2818 277.616 34.0818 277.616 33.8818C277.782 30.6625 279.176 27.6297 281.51 25.4097C283.845 23.1897 286.941 21.9519 290.161 21.9519C293.381 21.9519 296.477 23.1897 298.812 25.4097C301.146 27.6297 302.54 30.6625 302.706 33.8818C302.733 34.0818 302.739 34.2874 302.739 34.4874Z" fill="#3F3D56"/>
<path opacity="0.1" d="M302.739 34.4874C302.739 36.1391 302.414 37.7746 301.783 39.3005C301.152 40.8264 300.226 42.2129 299.06 43.3808C297.893 44.5487 296.509 45.4752 294.985 46.1072C293.461 46.7393 291.827 47.0646 290.178 47.0646C288.528 47.0646 286.895 46.7393 285.371 46.1072C283.847 45.4752 282.462 44.5487 281.295 43.3808C280.129 42.2129 279.204 40.8264 278.572 39.3005C277.941 37.7746 277.616 36.1391 277.616 34.4874C277.616 34.2818 277.616 34.0819 277.616 33.8819C281.157 30.9858 285.589 29.4038 290.161 29.4038C294.733 29.4038 299.165 30.9858 302.706 33.8819C302.733 34.0819 302.739 34.2874 302.739 34.4874Z" fill="black"/>
<path d="M290.178 70.2358C301.132 70.2358 310.013 61.3441 310.013 50.3756C310.013 39.4071 301.132 30.5154 290.178 30.5154C279.223 30.5154 270.342 39.4071 270.342 50.3756C270.342 61.3441 279.223 70.2358 290.178 70.2358Z" fill="#3F3D56"/>
<path d="M278.193 31.7097C278.195 28.6631 279.3 25.7204 281.304 23.4278C283.308 21.1352 286.074 19.6485 289.09 19.2436C287.316 19.0059 285.511 19.1507 283.797 19.6683C282.083 20.1859 280.499 21.0644 279.152 22.2449C277.805 23.4254 276.725 24.8806 275.985 26.513C275.245 28.1453 274.863 29.9172 274.863 31.7097C274.863 33.5023 275.245 35.2741 275.985 36.9065C276.725 38.5389 277.805 39.9941 279.152 41.1746C280.499 42.3551 282.083 43.2336 283.797 43.7512C285.511 44.2688 287.316 44.4136 289.09 44.1759C286.074 43.771 283.308 42.2843 281.304 39.9917C279.3 37.6991 278.195 34.7564 278.193 31.7097Z" fill="#3F3D56"/>
<path d="M267.801 58.4363C265.521 56.4186 264.049 53.6403 263.66 50.6178C263.271 47.5953 263.992 44.5343 265.687 42.0037C264.391 43.1323 263.339 44.5152 262.597 46.067C261.855 47.6188 261.439 49.3065 261.375 51.0256C261.311 52.7448 261.599 54.4589 262.223 56.0619C262.847 57.665 263.792 59.1229 265.001 60.3454C266.21 61.568 267.656 62.5292 269.251 63.1697C270.846 63.8102 272.555 64.1163 274.272 64.0691C275.99 64.0219 277.679 63.6224 279.237 62.8953C280.794 62.1682 282.185 61.1289 283.326 59.8418C283.696 59.4234 284.037 58.9798 284.346 58.5141C282.048 60.5111 279.103 61.604 276.059 61.5897C273.016 61.5754 270.081 60.4548 267.801 58.4363Z" fill="#3F3D56"/>
<path d="M279.808 75.5578C278.82 75.8911 277.722 75.9634 276.873 76.5633C275.208 77.7133 275.28 80.1521 275.763 82.1186C276.873 86.5629 279.647 90.846 283.847 92.6737C286.388 93.7848 289.229 93.8904 291.992 93.857C295.005 93.8237 298.395 93.4404 300.259 91.0794C301.186 89.8961 301.58 88.3961 301.951 86.9351C302.872 83.3241 303.799 79.6299 303.466 75.9189C301.641 76.08 299.582 76.1856 298.184 75.0356C296.786 73.8857 296.42 71.7024 295.798 69.8747C295.731 69.584 295.567 69.3251 295.332 69.1414C295.074 69.0156 294.784 68.971 294.5 69.0137C292.592 69.0854 290.682 68.9906 288.791 68.7303C287.609 68.5748 284.702 67.3415 283.797 68.3803C283.148 69.1414 283.559 71.4358 283.065 72.4968C282.753 73.1988 282.305 73.8313 281.745 74.357C281.186 74.8828 280.527 75.291 279.808 75.5578Z" fill="#FFC1C7"/>
<path opacity="0.05" d="M279.808 75.5578C278.82 75.8911 277.722 75.9634 276.873 76.5633C275.208 77.7133 275.28 80.1521 275.763 82.1186C276.873 86.5629 279.647 90.846 283.847 92.6737C286.388 93.7848 289.229 93.8904 291.992 93.857C295.005 93.8237 298.395 93.4404 300.259 91.0794C301.186 89.8961 301.58 88.3961 301.951 86.9351C302.872 83.3241 303.799 79.6299 303.466 75.9189C301.641 76.08 299.582 76.1856 298.184 75.0356C296.786 73.8857 296.42 71.7024 295.798 69.8747C295.731 69.584 295.567 69.3251 295.332 69.1414C295.074 69.0156 294.784 68.971 294.5 69.0137C292.592 69.0854 290.682 68.9906 288.791 68.7303C287.609 68.5748 284.702 67.3415 283.797 68.3803C283.148 69.1414 283.559 71.4358 283.065 72.4968C282.753 73.1988 282.305 73.8313 281.745 74.357C281.186 74.8828 280.527 75.291 279.808 75.5578Z" fill="black"/>
<path d="M176.193 205.158C171.754 205.291 167.221 205.102 162.877 206.08C162.048 206.174 161.282 206.57 160.724 207.191C160.086 208.102 160.424 209.374 160.952 210.358C162.154 212.579 164.165 214.252 166.566 215.03C169.207 215.874 172.054 215.552 174.817 215.641C178.586 215.761 182.291 216.653 185.703 218.263C186.479 218.629 187.301 219.04 188.149 218.913C189.376 218.724 190.141 217.496 190.596 216.341C191.105 214.951 191.515 213.527 191.822 212.08C192.466 209.341 192.555 203.93 188.799 203.191C187.079 202.858 185.053 204.047 183.4 204.391C181.026 204.864 178.613 205.12 176.193 205.158Z" fill="#444053"/>
<path d="M403.68 206.441C404.737 206.079 405.647 205.381 406.271 204.452C407.935 202.025 407.935 199.125 408.818 196.464C409.927 193.003 412.385 190.147 413.928 186.853C415.309 183.905 415.945 180.661 415.781 177.409C415.768 177.174 415.707 176.943 415.599 176.734C415.491 176.524 415.34 176.34 415.156 176.193C414.972 176.046 414.759 175.939 414.531 175.881C414.303 175.822 414.065 175.813 413.833 175.853C411.741 176.259 409.844 177.776 408.512 179.509C406.798 181.731 405.677 184.375 403.918 186.57C402.16 188.764 399.691 190.525 397.599 192.542C394.974 195.075 392.916 197.83 395.257 201.119C397.161 203.819 399.79 207.719 403.68 206.441Z" fill="#444053"/>
<path d="M267.701 133.694C253.737 151.868 236.406 167.178 216.657 178.787C210.615 182.336 204.312 185.559 198.941 190.064C194.868 193.486 191.412 197.575 187.977 201.641C187.583 202.027 187.313 202.523 187.201 203.063C187.186 203.455 187.256 203.846 187.406 204.208C188.516 207.485 189.803 211.041 192.766 212.83C200.444 201.719 215.702 198.847 227.404 192.125C232.841 189.003 237.796 185.125 242.812 181.37C250.061 175.937 257.472 170.731 265.044 165.754C270.065 162.454 275.236 159.21 280.995 157.493C293.201 153.838 306.517 157.493 317.792 163.493C329.066 169.493 338.992 177.692 350.039 184.075C365.052 192.742 381.803 197.852 398.387 202.891C398.98 198.902 399.341 194.991 400.184 191.047C396.045 190.464 392.134 188.825 388.272 187.22C383.961 185.42 379.622 183.598 375.75 180.981C373.192 179.248 370.867 177.181 368.337 175.426C362.822 171.537 356.43 169.093 350.843 165.321C343.564 160.41 337.932 153.46 331.274 147.732C328.372 145.238 325.287 142.977 322.197 140.722C319.001 138.383 315.755 136.022 312.071 134.572C307.699 132.844 302.928 132.489 298.239 132.155C287.753 131.378 277.638 130.344 267.701 133.694Z" fill="#575A89"/>
<path d="M289.9 73.8468C297.561 73.8468 303.771 67.6288 303.771 59.9585C303.771 52.2882 297.561 46.0702 289.9 46.0702C282.24 46.0702 276.029 52.2882 276.029 59.9585C276.029 67.6288 282.24 73.8468 289.9 73.8468Z" fill="#FFC1C7"/>
<path d="M289.49 88.9183C286.993 88.6074 284.599 87.7337 282.488 86.3629C280.376 84.9722 278.856 82.846 278.221 80.3965C277.772 78.4355 278.021 76.3189 277.233 74.4745C274.732 75.7302 272.134 76.7853 269.466 77.63C267.962 78.1022 266.392 78.5355 265.171 79.5299C262.547 81.6687 262.397 85.5574 262.469 88.9406C262.446 89.6108 262.53 90.2804 262.719 90.9238C262.968 91.5344 263.336 92.0895 263.801 92.5571C266.653 95.6125 271.086 96.8791 273.788 100.085C272.379 101.666 271.469 103.63 271.175 105.729C271.11 106.572 270.991 107.411 270.82 108.24C270.594 108.923 270.322 109.589 270.004 110.234C268.251 114.234 268.312 118.756 268.045 123.111C267.779 127.467 267.025 132.105 264.084 135.333C265.282 136.622 266.858 137 268.584 137.161C270.309 137.322 272.096 137.094 273.854 137.161C278.493 137.294 282.871 139.194 287.342 140.433C291.814 141.672 296.891 142.177 300.847 139.749C302.234 138.899 303.41 137.727 304.803 136.888C306.468 135.877 308.421 135.394 310.351 134.922L311.045 111.723C311.061 110.097 311.178 108.474 311.394 106.862C312.399 100.518 316.443 95.1459 320.361 90.0627C320.129 87.7459 319.375 85.5119 318.156 83.5294C316.936 81.5469 315.282 79.8678 313.32 78.6188C311.562 77.5735 309.703 76.7099 307.771 76.0411L303.211 74.2857C302.807 74.091 302.359 74.0067 301.912 74.0412C300.925 74.219 300.547 75.4245 300.492 76.4245C300.403 78.0022 300.636 79.5854 300.581 81.1631C300.525 82.7408 300.131 84.4074 299.016 85.5241C298.215 86.2425 297.269 86.7805 296.242 87.1018C293.912 87.9906 291.948 89.285 289.49 88.9183Z" fill="#FF6584"/>
<path d="M271.08 147.06C271.263 150.155 271.447 153.282 270.925 156.338C270.403 159.393 269.127 162.415 266.808 164.471C265.016 166.054 262.497 167.248 262.053 169.62C261.945 170.14 261.987 170.68 262.175 171.176C262.669 172.343 264.117 172.87 265.371 172.67C266.611 172.383 267.757 171.783 268.7 170.926C270.622 169.354 272.462 167.685 274.215 165.926C275.763 164.421 277.367 162.832 278.016 160.771C278.285 159.789 278.436 158.778 278.465 157.76C278.826 152.205 278.92 146.649 279.02 141.094C279.087 137.05 279.131 132.878 277.644 129.117C277.866 129.672 272.462 130.2 272.051 130.228C269.721 130.433 270.165 131.394 270.298 133.594C270.557 138.098 270.818 142.586 271.08 147.06Z" fill="#FFC1C7"/>
<path d="M311.483 147.06C311.3 150.155 311.117 153.282 311.639 156.338C312.16 159.393 313.436 162.415 315.755 164.471C317.548 166.054 320.067 167.248 320.51 169.62C320.619 170.14 320.577 170.68 320.388 171.176C319.895 172.343 318.446 172.87 317.192 172.67C315.952 172.383 314.806 171.783 313.864 170.926C311.942 169.354 310.101 167.685 308.348 165.926C306.801 164.421 305.197 162.832 304.548 160.771C304.278 159.789 304.127 158.778 304.098 157.76C303.738 152.205 303.644 146.649 303.544 141.094C303.477 137.05 303.433 132.878 304.92 129.117C304.698 129.672 310.102 130.2 310.512 130.228C312.843 130.433 312.399 131.394 312.266 133.594C312.021 138.098 311.761 142.586 311.483 147.06Z" fill="#FFC1C7"/>
<path opacity="0.1" d="M264.117 86.8962C262.159 92.6849 262.952 99.1179 264.955 104.879C265.443 106.295 266.015 107.773 265.787 109.256C265.621 110.015 265.391 110.759 265.099 111.479C264.532 113.22 264.429 115.079 264.8 116.873C264.882 117.411 265.093 117.922 265.415 118.362C265.613 118.565 265.799 118.78 265.97 119.006C266.73 120.195 265.238 121.667 265.415 123.072C265.549 124.239 266.73 124.928 267.557 125.767C269.893 128.139 269.444 132 268.833 135.277C271.668 135.027 274.115 132.705 276.956 132.894C277.89 132.971 278.782 133.317 279.524 133.889C280.266 134.462 280.827 135.237 281.139 136.122C281.034 133.372 282.011 131.028 282.249 128.283C282.565 124.711 280.257 121.511 279.142 118.112C277.516 113.156 278.432 107.773 278.032 102.557C277.859 100.618 277.578 98.6914 277.189 96.7847C276.684 94.1737 275.946 91.3183 273.738 89.835C270.892 87.9406 266.608 89.285 264.117 86.8962Z" fill="black"/>
<path d="M263.562 85.7852C261.604 91.5738 262.397 98.0068 264.4 103.768C264.888 105.184 265.46 106.662 265.232 108.145C265.066 108.904 264.836 109.647 264.544 110.367C263.977 112.109 263.874 113.968 264.245 115.762C264.327 116.3 264.538 116.811 264.861 117.25C265.059 117.454 265.244 117.669 265.415 117.895C266.176 119.084 264.683 120.556 264.861 121.961C264.994 123.128 266.176 123.817 267.002 124.656C269.338 127.028 268.889 130.889 268.278 134.166C271.114 133.916 273.56 131.594 276.401 131.783C277.335 131.86 278.227 132.206 278.969 132.778C279.711 133.351 280.272 134.126 280.585 135.011C280.479 132.261 281.456 129.917 281.694 127.172C282.011 123.6 279.702 120.4 278.587 117C276.962 112.045 277.877 106.662 277.478 101.446C277.305 99.5073 277.023 97.5803 276.634 95.6736C276.129 93.0626 275.391 90.2072 273.183 88.7239C270.337 86.8295 266.054 88.1739 263.562 85.7852Z" fill="#FF6584"/>
<path opacity="0.1" d="M318.463 86.8962C320.422 92.6849 319.628 99.1179 317.625 104.879C317.137 106.295 316.566 107.773 316.793 109.256C316.959 110.015 317.189 110.759 317.481 111.479C318.048 113.22 318.151 115.079 317.781 116.873C317.698 117.411 317.487 117.922 317.165 118.362C316.967 118.565 316.782 118.78 316.61 119.006C315.85 120.195 317.342 121.667 317.165 123.072C317.032 124.239 315.85 124.928 315.023 125.767C312.687 128.139 313.137 132 313.747 135.277C310.912 135.027 308.465 132.705 305.624 132.894C304.69 132.971 303.799 133.317 303.056 133.889C302.314 134.462 301.753 135.237 301.441 136.122C301.546 133.372 300.57 131.028 300.331 128.283C300.015 124.711 302.323 121.511 303.438 118.112C305.064 113.156 304.148 107.773 304.548 102.557C304.718 100.628 304.996 98.7102 305.38 96.8125C305.885 94.2015 306.623 91.346 308.831 89.8628C311.689 87.9406 315.972 89.285 318.463 86.8962Z" fill="black"/>
<path d="M319.018 85.7852C320.976 91.5738 320.183 98.0068 318.18 103.768C317.692 105.184 317.12 106.662 317.348 108.145C317.514 108.904 317.744 109.647 318.036 110.367C318.603 112.109 318.706 113.968 318.335 115.762C318.253 116.3 318.042 116.811 317.72 117.25C317.522 117.454 317.336 117.669 317.165 117.895C316.405 119.084 317.897 120.556 317.72 121.961C317.586 123.128 316.405 123.817 315.578 124.656C313.242 127.028 313.691 130.889 314.302 134.166C311.467 133.916 309.02 131.594 306.179 131.783C305.245 131.86 304.353 132.206 303.611 132.778C302.869 133.351 302.308 134.126 301.996 135.011C302.101 132.261 301.125 129.917 300.886 127.172C300.57 123.6 302.878 120.4 303.993 117C305.619 112.045 304.703 106.662 305.103 101.446C305.273 99.5168 305.551 97.5991 305.935 95.7014C306.44 93.0904 307.178 90.235 309.386 88.7517C312.243 86.8296 316.527 88.1739 319.018 85.7852Z" fill="#FF6584"/>
<path d="M289.623 58.0142C298.816 58.0142 306.268 53.0398 306.268 46.9035C306.268 40.7673 298.816 35.7929 289.623 35.7929C280.43 35.7929 272.978 40.7673 272.978 46.9035C272.978 53.0398 280.43 58.0142 289.623 58.0142Z" fill="#3F3D56"/>
<path opacity="0.05" d="M275.752 105.795C275.747 103.825 276.489 101.927 277.828 100.483C279.166 99.0398 281.002 98.1587 282.965 98.0179C282.782 98.0179 282.599 98.0179 282.41 98.0179C280.35 98.0179 278.374 98.8373 276.917 100.296C275.461 101.754 274.642 103.733 274.642 105.795C274.642 107.858 275.461 109.836 276.917 111.295C278.374 112.753 280.35 113.573 282.41 113.573C282.599 113.573 282.782 113.573 282.965 113.545C281.007 113.405 279.175 112.527 277.837 111.09C276.499 109.652 275.754 107.761 275.752 105.795Z" fill="black"/>
<path d="M281.855 113.567C285.226 113.567 287.958 110.085 287.958 105.79C287.958 101.494 285.226 98.0124 281.855 98.0124C278.484 98.0124 275.752 101.494 275.752 105.79C275.752 110.085 278.484 113.567 281.855 113.567Z" fill="#FF6584"/>
<path opacity="0.05" d="M307.377 105.795C307.383 103.825 306.641 101.927 305.302 100.483C303.963 99.0398 302.127 98.1587 300.165 98.0179C300.353 98.0179 300.536 98.0179 300.72 98.0179C302.78 98.0179 304.755 98.8373 306.212 100.296C307.669 101.754 308.487 103.733 308.487 105.795C308.487 107.858 307.669 109.836 306.212 111.295C304.755 112.753 302.78 113.573 300.72 113.573C300.536 113.573 300.353 113.573 300.165 113.545C302.122 113.405 303.954 112.527 305.292 111.09C306.631 109.652 307.375 107.761 307.377 105.795Z" fill="black"/>
<path d="M301.274 113.567C304.645 113.567 307.377 110.085 307.377 105.79C307.377 101.494 304.645 98.0124 301.274 98.0124C297.904 98.0124 295.171 101.494 295.171 105.79C295.171 110.085 297.904 113.567 301.274 113.567Z" fill="#FF6584"/>
<path opacity="0.1" d="M289.623 56.9086C280.712 56.9086 273.433 52.2311 272.978 46.3535C272.978 46.5369 272.978 46.7202 272.978 46.9091C272.978 53.0199 280.435 58.0197 289.623 58.0197C298.811 58.0197 306.268 53.0199 306.268 46.9091C306.268 46.7202 306.268 46.5369 306.268 46.3535C305.818 52.2311 298.539 56.9086 289.623 56.9086Z" fill="black"/>
<path d="M191.412 18.9603L182.801 24.4323L188.027 14.9105C186.547 13.7282 184.716 13.0733 182.823 13.0494H182.684C182.086 13.0602 181.488 13.0175 180.898 12.9217L177.979 14.7716L179.228 12.4939C177.159 11.7693 175.372 10.4082 174.123 8.60518L168.902 11.9384L172.22 5.92197C169.169 2.25546 165.052 0 160.519 0C155.087 0 150.249 3.23875 147.125 8.27742C146.201 9.79035 144.892 11.0301 143.333 11.8697C141.773 12.7092 140.018 13.1183 138.248 13.055H137.959C131.962 13.055 127.101 19.8658 127.101 28.2599C127.101 36.654 131.962 43.4648 137.959 43.4648C139.276 43.4599 140.573 43.1358 141.738 42.5204C145.649 40.4816 150.787 40.4427 154.882 42.2593C156.64 43.0449 158.544 43.4509 160.469 43.4509C162.394 43.4509 164.298 43.0449 166.056 42.2593C168.118 41.3646 170.347 40.9239 172.594 40.967C174.841 41.0101 177.052 41.5361 179.078 42.5093C180.234 43.1135 181.519 43.4317 182.823 43.437C188.821 43.437 193.681 36.6317 193.681 28.2321C193.711 25.0001 192.931 21.8121 191.412 18.9603Z" fill="#F2F2F2"/>
<path opacity="0.03" d="M175.183 41.2093C172.05 40.6142 168.81 40.9681 165.878 42.226C164.121 43.0114 162.218 43.4174 160.294 43.4174C158.37 43.4174 156.467 43.0114 154.71 42.226C152.631 41.3131 150.379 40.8631 148.11 40.9073C145.84 40.9514 143.607 41.4885 141.566 42.4815C140.402 43.1012 139.105 43.4273 137.787 43.4315C132.455 43.4315 128.028 38.0595 127.101 30.9709C128.166 30.1925 129.07 29.2154 129.764 28.0932C132.888 23.0546 137.726 19.8214 143.158 19.8214C148.59 19.8214 153.373 23.0157 156.474 28.0044C157.406 29.5095 158.71 30.7484 160.261 31.6009C161.811 32.4535 163.555 32.8909 165.324 32.8708H165.462C169.723 32.843 173.396 36.2484 175.183 41.2093Z" fill="black"/>
<path d="M485.462 114.284L481.168 117.012L483.776 112.267C483.036 111.676 482.12 111.349 481.173 111.34H481.107C480.808 111.342 480.509 111.32 480.214 111.273L478.76 112.195L479.381 111.084C478.351 110.721 477.46 110.043 476.835 109.145L474.232 110.812L475.897 107.818C475.204 106.915 474.318 106.18 473.304 105.665C472.29 105.15 471.174 104.868 470.038 104.84C467.33 104.84 464.917 106.456 463.38 108.967C462.917 109.723 462.263 110.342 461.483 110.76C460.703 111.179 459.826 111.383 458.941 111.351H458.797C455.806 111.351 453.382 114.745 453.382 118.934C453.382 123.122 455.806 126.506 458.797 126.506C459.455 126.503 460.102 126.341 460.683 126.033C461.702 125.538 462.816 125.27 463.948 125.248C465.081 125.226 466.204 125.45 467.242 125.906C468.115 126.294 469.06 126.495 470.016 126.495C470.971 126.495 471.917 126.294 472.79 125.906C473.819 125.459 474.931 125.239 476.052 125.261C477.173 125.283 478.277 125.546 479.287 126.033C479.862 126.335 480.502 126.493 481.151 126.494C484.142 126.494 486.566 123.1 486.566 118.911C486.589 117.301 486.209 115.71 485.462 114.284Z" fill="#F2F2F2"/>
<path opacity="0.03" d="M477.378 125.395C475.815 125.097 474.198 125.273 472.734 125.9C471.861 126.289 470.916 126.49 469.96 126.489C469.004 126.484 468.059 126.28 467.186 125.889C466.151 125.431 465.028 125.205 463.896 125.227C462.764 125.249 461.65 125.519 460.634 126.017C460.052 126.324 459.405 126.486 458.747 126.489C456.089 126.489 453.876 123.806 453.415 120.273C453.947 119.885 454.399 119.398 454.747 118.839C456.3 116.323 458.714 114.712 461.405 114.712C464.096 114.712 466.498 116.306 468.063 118.795C468.53 119.549 469.184 120.169 469.962 120.595C470.74 121.02 471.615 121.237 472.501 121.223H472.574C474.643 121.223 476.474 122.917 477.378 125.395Z" fill="black"/>
<path d="M397.333 50.9533L404.235 55.3365L400.046 47.709C401.232 46.7597 402.7 46.2338 404.218 46.2146H404.329C404.809 46.2195 405.288 46.1823 405.761 46.1035L408.096 47.5923L407.098 45.7647C408.759 45.1764 410.191 44.0754 411.187 42.6203L415.37 45.2758L412.729 40.4649C415.176 37.5206 418.472 35.7151 422.106 35.7151C426.456 35.7151 430.334 38.3094 432.836 42.3481C433.576 43.5554 434.622 44.5454 435.867 45.2176C437.112 45.8898 438.513 46.2204 439.927 46.1757H440.166C444.971 46.1757 448.86 51.6311 448.86 58.3585C448.86 65.086 444.976 70.5414 440.166 70.5414C439.108 70.5385 438.067 70.2792 437.131 69.7858C435.494 68.9867 433.704 68.554 431.883 68.5175C430.063 68.481 428.256 68.8418 426.589 69.5747C425.18 70.2047 423.654 70.5303 422.111 70.5303C420.568 70.5303 419.043 70.2047 417.634 69.5747C415.982 68.8572 414.194 68.5041 412.393 68.5396C410.593 68.575 408.821 68.9982 407.198 69.7803C406.272 70.2625 405.245 70.5158 404.201 70.5191C399.397 70.5191 395.502 65.0638 395.502 58.3363C395.489 55.7611 396.118 53.2233 397.333 50.9533Z" fill="#F2F2F2"/>
<path opacity="0.03" d="M410.338 68.7304C412.847 68.2516 415.442 68.534 417.789 69.5414C419.198 70.1714 420.724 70.497 422.267 70.497C423.81 70.497 425.335 70.1714 426.744 69.5414C428.411 68.8091 430.218 68.4482 432.038 68.4837C433.858 68.5192 435.649 68.9502 437.286 69.747C438.221 70.2434 439.263 70.5046 440.321 70.5081C444.588 70.5081 448.139 66.2027 448.877 60.5085C448.026 59.8828 447.303 59.1003 446.746 58.2031C444.244 54.1643 440.365 51.5756 436.01 51.5756C431.655 51.5756 427.832 54.1366 425.329 58.1308C424.581 59.3345 423.535 60.3247 422.293 61.0059C421.051 61.687 419.655 62.0361 418.239 62.0196H418.128C414.71 62.064 411.769 64.775 410.338 68.7304Z" fill="black"/>
<path d="M133.937 363.256C131.645 359.012 134.242 353.812 137.227 350.029C140.212 346.246 143.857 342.302 143.779 337.48C143.669 330.547 136.317 326.452 130.463 322.78C126.11 320.06 122.095 316.832 118.501 313.164C116.994 311.752 115.749 310.084 114.823 308.237C113.608 305.526 113.641 302.442 113.713 299.47C113.968 289.582 114.457 279.701 115.178 269.827" stroke="#3F3D56" stroke-width="4" stroke-miterlimit="10"/>
<path d="M104.02 269.277C104.098 267.46 104.633 265.693 105.576 264.139C106.518 262.585 107.839 261.295 109.413 260.389L111.827 265.172L111.743 259.4C112.896 259.057 114.099 258.913 115.3 258.972C117.433 259.07 119.489 259.799 121.209 261.067C122.928 262.335 124.233 264.085 124.96 266.096C125.686 268.106 125.8 270.287 125.288 272.363C124.776 274.439 123.661 276.316 122.083 277.757C120.506 279.198 118.537 280.139 116.426 280.46C114.315 280.78 112.156 280.467 110.222 279.559C108.289 278.652 106.668 277.19 105.564 275.36C104.46 273.53 103.922 271.413 104.02 269.277Z" fill="#57B894"/>
<path d="M123.278 342.435C124.411 344.641 126.267 346.389 128.535 347.387C130.803 348.385 133.344 348.572 135.734 347.916C138.123 347.261 140.214 345.803 141.656 343.786C143.099 341.77 143.806 339.319 143.657 336.843C143.509 334.367 142.515 332.018 140.842 330.189C139.169 328.359 136.918 327.162 134.468 326.797C132.018 326.432 129.517 326.922 127.385 328.184C125.252 329.446 123.618 331.405 122.757 333.73L129.498 339.224L122.08 337.502C122.076 339.219 122.487 340.911 123.278 342.435Z" fill="#57B894"/>
<path d="M128.61 321.447C131.261 321.575 133.867 320.72 135.928 319.046C137.99 317.373 139.364 314.997 139.787 312.374C140.211 309.75 139.654 307.062 138.224 304.823C136.794 302.585 134.59 300.952 132.034 300.237L132.089 304.681L129.642 299.831H129.615C128.181 299.736 126.742 299.927 125.383 300.395C124.025 300.862 122.773 301.597 121.701 302.555C120.629 303.513 119.759 304.676 119.141 305.975C118.523 307.274 118.171 308.684 118.104 310.121C118.037 311.558 118.258 312.994 118.752 314.345C119.246 315.696 120.005 316.934 120.983 317.988C121.962 319.042 123.14 319.89 124.45 320.482C125.759 321.074 127.174 321.398 128.61 321.436V321.447Z" fill="#57B894"/>
<path d="M102.4 303.981C104.069 304.058 105.734 303.746 107.262 303.07C108.79 302.393 110.141 301.371 111.208 300.083C112.275 298.795 113.028 297.277 113.409 295.648C113.79 294.019 113.789 292.323 113.404 290.695C113.02 289.067 112.263 287.55 111.194 286.264C110.124 284.978 108.772 283.959 107.242 283.285C105.712 282.612 104.047 282.303 102.378 282.384C100.709 282.464 99.081 282.932 97.6229 283.749L99.5315 288.987L95.6088 285.21C94.5658 286.164 93.7207 287.314 93.1219 288.595C92.5231 289.876 92.1822 291.263 92.1189 292.676C92.068 293.677 92.1595 294.679 92.3908 295.654C92.9268 297.943 94.1942 299.995 96.0006 301.498C97.8071 303.001 100.054 303.873 102.4 303.981Z" fill="#57B894"/>
<path opacity="0.1" d="M105.474 272.144C107.965 272.421 110.39 273.194 112.892 273.349C115.394 273.505 118.135 272.905 119.716 270.96C120.571 269.91 120.998 268.583 121.719 267.444C122.4 266.377 123.334 265.495 124.438 264.877C125.13 266.247 125.523 267.749 125.59 269.283C125.657 270.817 125.398 272.348 124.828 273.773C124.258 275.199 123.392 276.486 122.286 277.551C121.181 278.615 119.862 279.431 118.417 279.945C116.972 280.458 115.434 280.658 113.906 280.531C112.378 280.403 110.894 279.951 109.554 279.204C108.214 278.458 107.048 277.434 106.134 276.201C105.22 274.969 104.579 273.555 104.253 272.055C104.658 272.055 105.085 272.099 105.474 272.144Z" fill="black"/>
<path opacity="0.1" d="M102.4 303.981C104.261 304.068 106.113 303.671 107.776 302.829C109.438 301.987 110.855 300.729 111.889 299.177C112.922 297.625 113.538 295.832 113.674 293.971C113.811 292.111 113.465 290.247 112.67 288.56C111.81 289.137 111.072 289.877 110.495 290.737C109.729 291.898 109.263 293.243 108.359 294.309C106.694 296.287 103.804 296.937 101.196 296.815C98.5883 296.693 96.0749 295.959 93.4783 295.704C93.1232 295.67 92.757 295.648 92.3687 295.637C92.9026 297.933 94.172 299.992 95.9831 301.498C97.7942 303.005 100.048 303.877 102.4 303.981Z" fill="black"/>
<path opacity="0.1" d="M128.61 321.447C130.453 321.534 132.287 321.146 133.938 320.321C135.589 319.497 137.001 318.262 138.04 316.736C139.078 315.209 139.709 313.442 139.872 311.602C140.035 309.762 139.724 307.911 138.969 306.226C138.077 306.819 137.302 307.572 136.683 308.448C135.845 309.637 135.324 310.998 134.342 312.092C132.516 314.125 129.459 314.87 126.696 314.775C124.022 314.72 121.447 314.059 118.79 313.859C119.451 315.98 120.747 317.846 122.504 319.204C124.261 320.562 126.393 321.345 128.61 321.447Z" fill="black"/>
<path opacity="0.1" d="M123.278 342.435C124.542 344.894 126.699 346.775 129.306 347.69C131.912 348.605 134.77 348.485 137.29 347.355C139.811 346.225 141.804 344.171 142.858 341.615C143.912 339.058 143.948 336.195 142.958 333.613C142.069 334.199 141.271 334.912 140.589 335.73C139.563 336.985 138.886 338.402 137.698 339.569C135.479 341.741 131.928 342.635 128.755 342.718C126.925 342.73 125.097 342.636 123.278 342.435Z" fill="black"/>
<path d="M453.798 359.073C452.133 355.94 454.025 352.096 456.234 349.301C458.442 346.507 461.127 343.596 461.066 340.035C460.988 334.913 455.557 331.891 451.223 329.175C448.004 327.16 445.035 324.769 442.379 322.053C441.268 321.006 440.348 319.773 439.661 318.408C438.767 316.408 438.79 314.131 438.845 311.936C439.034 304.633 439.404 297.333 439.955 290.037" stroke="#3F3D56" stroke-width="4" stroke-miterlimit="10"/>
<path d="M431.682 289.643C431.746 288.305 432.144 287.006 432.84 285.862C433.536 284.719 434.508 283.769 435.666 283.099L437.453 286.638L437.397 282.354C438.25 282.105 439.139 281.998 440.027 282.038C441.604 282.108 443.126 282.645 444.398 283.581C445.67 284.517 446.637 285.81 447.175 287.296C447.713 288.782 447.799 290.395 447.421 291.93C447.043 293.465 446.219 294.853 445.053 295.919C443.886 296.985 442.43 297.68 440.869 297.917C439.308 298.154 437.712 297.921 436.283 297.249C434.854 296.577 433.656 295.496 432.841 294.142C432.026 292.788 431.63 291.222 431.704 289.643H431.682Z" fill="#57B894"/>
<path d="M445.908 343.718C446.746 345.347 448.117 346.637 449.792 347.373C451.467 348.109 453.344 348.246 455.108 347.761C456.872 347.276 458.415 346.199 459.48 344.71C460.545 343.22 461.065 341.41 460.955 339.581C460.844 337.753 460.109 336.019 458.873 334.669C457.637 333.319 455.975 332.435 454.165 332.167C452.356 331.898 450.509 332.261 448.935 333.194C447.361 334.127 446.155 335.573 445.52 337.291L450.513 341.352L445.037 340.08C445.032 341.345 445.331 342.593 445.908 343.718Z" fill="#57B894"/>
<path d="M449.847 328.163C451.958 328.257 454.019 327.509 455.579 326.083C457.139 324.658 458.071 322.671 458.17 320.558C458.232 319.31 457.996 318.064 457.482 316.925C457.006 315.854 456.3 314.901 455.415 314.133C454.53 313.365 453.487 312.801 452.361 312.481L452.4 315.775L450.596 312.192C448.481 312.092 446.413 312.838 444.847 314.266C443.281 315.693 442.346 317.685 442.246 319.803C442.147 321.921 442.892 323.991 444.317 325.559C445.743 327.127 447.732 328.064 449.847 328.163Z" fill="#57B894"/>
<path d="M430.484 315.286C431.719 315.346 432.95 315.118 434.082 314.619C435.213 314.121 436.213 313.366 437.004 312.414C437.794 311.463 438.353 310.34 438.636 309.135C438.918 307.93 438.918 306.676 438.634 305.472C438.35 304.267 437.79 303.145 436.999 302.194C436.208 301.243 435.207 300.489 434.075 299.992C432.943 299.495 431.711 299.267 430.477 299.328C429.242 299.389 428.038 299.736 426.961 300.342L428.37 304.231L425.468 301.454C424.698 302.157 424.074 303.006 423.632 303.952C423.191 304.898 422.94 305.921 422.894 306.964C422.853 307.711 422.921 308.459 423.093 309.187C423.499 310.868 424.439 312.371 425.772 313.471C427.105 314.571 428.758 315.208 430.484 315.286Z" fill="#57B894"/>
<path opacity="0.1" d="M432.759 291.771C434.595 291.976 436.387 292.548 438.235 292.665C440.083 292.782 442.119 292.332 443.278 290.898C443.911 290.121 444.227 289.143 444.754 288.299C445.259 287.512 445.948 286.862 446.763 286.404C447.396 287.65 447.691 289.04 447.619 290.436C447.547 291.832 447.11 293.184 446.353 294.358C445.595 295.531 444.543 296.485 443.301 297.124C442.06 297.763 440.672 298.064 439.278 297.998C437.526 297.907 435.853 297.242 434.516 296.104C433.179 294.967 432.254 293.421 431.882 291.704C432.154 291.715 432.437 291.737 432.759 291.771Z" fill="black"/>
<path opacity="0.1" d="M430.484 315.286C431.858 315.349 433.225 315.056 434.453 314.434C435.681 313.812 436.727 312.884 437.49 311.738C438.254 310.592 438.709 309.268 438.811 307.895C438.914 306.521 438.66 305.144 438.074 303.898C437.44 304.325 436.894 304.87 436.465 305.503C435.91 306.364 435.555 307.353 434.889 308.142C433.646 309.603 431.521 310.086 429.596 309.998C427.671 309.909 425.818 309.359 423.898 309.187C423.632 309.159 423.343 309.142 423.094 309.137C423.49 310.827 424.426 312.342 425.759 313.451C427.093 314.561 428.752 315.205 430.484 315.286Z" fill="black"/>
<path opacity="0.1" d="M449.848 328.163C451.958 328.257 454.019 327.509 455.579 326.083C457.139 324.658 458.071 322.671 458.17 320.558C458.232 319.31 457.996 318.064 457.482 316.925C456.833 317.36 456.269 317.91 455.818 318.547C455.196 319.419 454.813 320.431 454.086 321.236C452.738 322.736 450.48 323.269 448.438 323.219C446.397 323.169 444.554 322.691 442.601 322.541C443.084 324.112 444.039 325.494 445.336 326.5C446.633 327.507 448.209 328.087 449.848 328.163Z" fill="black"/>
<path opacity="0.1" d="M445.908 343.718C446.846 345.527 448.439 346.909 450.361 347.58C452.283 348.252 454.388 348.162 456.246 347.33C458.104 346.498 459.575 344.987 460.356 343.105C461.138 341.223 461.171 339.113 460.45 337.208C459.792 337.638 459.201 338.164 458.697 338.769C457.937 339.696 457.438 340.741 456.561 341.607C454.93 343.207 452.3 343.868 449.958 343.929C448.605 343.94 447.253 343.87 445.908 343.718Z" fill="black"/>
<path d="M521.304 367.145C523.596 362.901 520.999 357.701 518.014 353.918C515.029 350.135 511.356 346.191 511.462 341.368C511.573 334.435 518.924 330.341 524.778 326.669C529.133 323.949 533.15 320.721 536.745 317.053C538.253 315.641 539.498 313.973 540.424 312.125C541.639 309.414 541.606 306.331 541.534 303.359C541.301 293.456 540.814 283.577 540.074 273.721" stroke="#3F3D56" stroke-width="4" stroke-miterlimit="10"/>
<path d="M551.243 273.166C551.164 271.35 550.629 269.583 549.686 268.029C548.743 266.475 547.424 265.185 545.85 264.277L543.431 269.066L543.509 263.272C542.356 262.93 541.154 262.785 539.952 262.844C537.82 262.944 535.766 263.674 534.048 264.943C532.331 266.211 531.027 267.961 530.302 269.97C529.577 271.98 529.463 274.16 529.975 276.235C530.486 278.309 531.601 280.186 533.177 281.627C534.753 283.067 536.72 284.008 538.83 284.33C540.94 284.652 543.098 284.341 545.031 283.435C546.964 282.53 548.586 281.071 549.692 279.244C550.798 277.416 551.337 275.301 551.243 273.166Z" fill="#57B894"/>
<path d="M531.985 346.324C530.852 348.529 528.996 350.278 526.728 351.276C524.46 352.274 521.919 352.461 519.53 351.805C517.141 351.149 515.05 349.691 513.607 347.675C512.164 345.659 511.458 343.207 511.606 340.732C511.754 338.256 512.748 335.906 514.422 334.077C516.095 332.248 518.345 331.051 520.795 330.686C523.245 330.321 525.746 330.811 527.879 332.073C530.011 333.335 531.645 335.293 532.507 337.619L525.765 343.113L533.183 341.391C533.187 343.108 532.776 344.8 531.985 346.324Z" fill="#57B894"/>
<path d="M526.653 325.336C524.002 325.463 521.397 324.609 519.335 322.935C517.273 321.261 515.899 318.886 515.476 316.262C515.053 313.639 515.609 310.951 517.039 308.712C518.47 306.473 520.673 304.841 523.23 304.126L523.174 308.57L525.649 303.72C527.083 303.624 528.521 303.816 529.88 304.284C531.239 304.751 532.491 305.486 533.563 306.444C534.635 307.402 535.505 308.565 536.122 309.864C536.74 311.163 537.092 312.572 537.159 314.009C537.226 315.447 537.006 316.883 536.511 318.234C536.017 319.585 535.258 320.823 534.28 321.877C533.302 322.931 532.123 323.778 530.814 324.37C529.504 324.962 528.09 325.287 526.653 325.325V325.336Z" fill="#57B894"/>
<path d="M552.863 307.87C551.194 307.947 549.53 307.635 548.001 306.958C546.473 306.282 545.122 305.26 544.056 303.972C542.989 302.684 542.235 301.165 541.854 299.536C541.473 297.907 541.475 296.212 541.859 294.584C542.244 292.955 543 291.439 544.07 290.153C545.139 288.867 546.492 287.847 548.022 287.174C549.551 286.501 551.216 286.192 552.885 286.273C554.555 286.353 556.182 286.82 557.641 287.637L555.732 292.876L559.655 289.099C561.228 290.541 562.339 292.418 562.848 294.492C563.357 296.566 563.24 298.745 562.514 300.753C561.787 302.761 560.483 304.509 558.765 305.775C557.048 307.042 554.994 307.771 552.863 307.87Z" fill="#57B894"/>
<path opacity="0.1" d="M549.79 276.032C547.298 276.31 544.874 277.082 542.371 277.238C539.869 277.393 537.128 276.794 535.547 274.849C534.693 273.799 534.265 272.471 533.544 271.333C532.863 270.266 531.929 269.384 530.825 268.766C530.133 270.136 529.74 271.638 529.673 273.172C529.606 274.706 529.866 276.237 530.435 277.662C531.005 279.088 531.871 280.375 532.977 281.439C534.082 282.503 535.401 283.319 536.846 283.833C538.291 284.347 539.829 284.547 541.357 284.419C542.886 284.292 544.369 283.84 545.709 283.093C547.049 282.347 548.215 281.323 549.129 280.09C550.043 278.857 550.684 277.444 551.01 275.944C550.616 275.944 550.195 275.988 549.79 276.032Z" fill="black"/>
<path opacity="0.1" d="M552.863 307.87C551.002 307.956 549.15 307.56 547.488 306.718C545.825 305.876 544.408 304.618 543.375 303.066C542.341 301.514 541.726 299.72 541.589 297.86C541.452 296 541.798 294.135 542.593 292.448C543.453 293.026 544.192 293.765 544.768 294.626C545.534 295.787 546 297.132 546.904 298.198C548.569 300.176 551.46 300.826 554.067 300.704C556.675 300.581 559.188 299.848 561.785 299.593C562.14 299.559 562.506 299.537 562.895 299.526C562.361 301.822 561.091 303.88 559.28 305.387C557.469 306.893 555.216 307.765 552.863 307.87Z" fill="black"/>
<path opacity="0.1" d="M526.653 325.336C524.81 325.422 522.976 325.035 521.325 324.21C519.675 323.385 518.263 322.151 517.224 320.625C516.185 319.098 515.554 317.331 515.391 315.491C515.229 313.651 515.54 311.8 516.294 310.114C517.186 310.708 517.961 311.461 518.58 312.336C519.418 313.525 519.94 314.886 520.922 315.981C522.747 318.014 525.804 318.758 528.567 318.664C531.242 318.608 533.816 317.947 536.474 317.747C535.813 319.869 534.516 321.735 532.759 323.093C531.002 324.45 528.87 325.234 526.653 325.336Z" fill="black"/>
<path opacity="0.1" d="M531.985 346.324C530.691 348.728 528.536 350.553 525.954 351.431C523.371 352.31 520.552 352.177 518.063 351.06C515.574 349.943 513.6 347.924 512.537 345.408C511.474 342.893 511.401 340.069 512.333 337.502C513.222 338.087 514.02 338.801 514.702 339.619C515.728 340.874 516.405 342.291 517.593 343.457C519.812 345.629 523.363 346.524 526.536 346.607C528.357 346.618 530.176 346.523 531.985 346.324Z" fill="black"/>
<path d="M117.197 360.04C117.197 360.04 125.714 359.773 128.294 357.946C130.874 356.118 141.405 353.929 142.043 356.834C142.681 359.74 154.848 371.439 145.228 371.517C135.607 371.595 122.873 370.017 120.31 368.456C117.747 366.895 117.197 360.04 117.197 360.04Z" fill="#656380"/>
<path opacity="0.2" d="M145.388 370.523C135.768 370.601 123.034 369.023 120.471 367.462C118.518 366.273 117.741 362.001 117.48 360.029H117.197C117.197 360.029 117.752 366.906 120.299 368.473C122.846 370.039 135.596 371.612 145.216 371.534C147.991 371.534 148.95 370.523 148.901 369.062C148.512 369.956 147.458 370.506 145.388 370.523Z" fill="black"/>
<path d="M443.533 358.984C443.533 358.984 448.527 358.834 450.008 357.762C451.49 356.69 457.66 355.418 458.031 357.134C458.403 358.851 465.505 365.656 459.89 365.701C454.275 365.745 446.84 364.829 445.342 363.912C443.844 362.995 443.533 358.984 443.533 358.984Z" fill="#656380"/>
<path opacity="0.2" d="M459.968 365.106C454.353 365.151 446.918 364.229 445.42 363.318C444.31 362.623 443.828 360.129 443.678 358.979H443.533C443.533 358.979 443.85 362.995 445.342 363.906C446.835 364.817 454.275 365.745 459.89 365.695C461.51 365.695 462.07 365.106 462.037 364.251C461.793 364.773 461.172 365.095 459.968 365.106Z" fill="black"/>
<path d="M505.026 362.262C505.026 362.262 513.542 361.995 516.122 360.168C518.702 358.34 529.233 356.151 529.871 359.057C530.509 361.962 542.677 373.661 533.056 373.739C523.435 373.817 510.702 372.239 508.138 370.678C505.575 369.117 505.026 362.262 505.026 362.262Z" fill="#656380"/>
<path opacity="0.2" d="M533.217 372.745C523.596 372.823 510.862 371.245 508.299 369.684C506.346 368.495 505.569 364.223 505.309 362.251H505.026C505.026 362.251 505.58 369.128 508.127 370.695C510.674 372.262 523.424 373.834 533.045 373.756C535.819 373.756 536.779 372.745 536.729 371.284C536.34 372.178 535.286 372.728 533.217 372.745Z" fill="black"/>
</g>
<defs>
<clipPath id="clip0">
<rect width="593" height="383" fill="white"/>
</clipPath>
</defs>
</svg>
